# xmcd CD database file
#
# Track frame offsets:
#	183
#	45923
#	63898
#	89358
#	129233
#	206208
#	224103
#	252388
#	269100
#	296463
#
# Disc length: 4573 seconds
#
# Revision: 0
# Processed by: cddbd v1.4PL0 Copyright (c) Steve Scherf et al.
# Submitted via: Feurio! 1.65 - http://www.feurio.com
#
DISCID=9f11db0a
DTITLE=Groundhogs - BBC Radio One Live In Concert
DYEAR=1972
DGENRE=Blues
TTITLE0=Split Part 1
TTITLE1=Cherry Red
TTITLE2=Split Part 2
TTITLE3=Groundhogs Blues
TTITLE4=Still A Fool
TTITLE5=Ship On The Ocean
TTITLE6=Free From All Alarm
TTITLE7=Dog Me Bitch
TTITLE8=Light My Light
TTITLE9=Sins Of A Father
EXTD=ARD Windsong WINCD064 
EXTT0=
EXTT1=
EXTT2=
EXTT3=
EXTT4=
EXTT5=
EXTT6=
EXTT7=
EXTT8=
EXTT9=
PLAYORDER=
